<?xml version="1.0" encoding="UTF-8" standalone="no"?>
<!DOCTYPE svg PUBLIC "-//W3C//DTD SVG 1.1//EN"
 "http://www.w3.org/Graphics/SVG/1.1/DTD/svg11.dtd">
<!-- Generated by graphviz version 2.43.0 (0)
 -->
<!-- Title: %3 Pages: 1 -->
<svg width="271pt" height="161pt"
 viewBox="0.00 0.00 271.49 161.42" xmlns="http://www.w3.org/2000/svg" xmlns:xlink="http://www.w3.org/1999/xlink">
<g id="graph0" class="graph" transform="scale(1 1) rotate(0) translate(4 157.42)">
<title>%3</title>
<polygon fill="white" stroke="transparent" points="-4,4 -4,-157.42 267.49,-157.42 267.49,4 -4,4"/>
<!-- 1 -->
<g id="node1" class="node">
<title>1</title>
<ellipse fill="none" stroke="black" cx="117.57" cy="-100.12" rx="27" ry="18"/>
<text text-anchor="middle" x="117.57" y="-96.42" font-family="Times,serif" font-size="14.00">1</text>
</g>
<!-- 3 -->
<g id="node2" class="node">
<title>3</title>
<ellipse fill="none" stroke="black" cx="73.37" cy="-135.42" rx="27" ry="18"/>
<text text-anchor="middle" x="73.37" y="-131.72" font-family="Times,serif" font-size="14.00">3</text>
</g>
<!-- 1&#45;&gt;3 -->
<g id="edge1" class="edge">
<title>1&#45;&gt;3</title>
<path fill="none" stroke="black" d="M100.1,-114.07C99.62,-114.45 99.13,-114.84 98.64,-115.23"/>
<polygon fill="black" stroke="black" points="96.34,-112.59 90.71,-121.57 100.71,-118.06 96.34,-112.59"/>
</g>
<!-- 4 -->
<g id="node3" class="node">
<title>4</title>
<ellipse fill="none" stroke="black" cx="97.13" cy="-44.95" rx="27" ry="18"/>
<text text-anchor="middle" x="97.13" y="-41.25" font-family="Times,serif" font-size="14.00">4</text>
</g>
<!-- 1&#45;&gt;4 -->
<g id="edge2" class="edge">
<title>1&#45;&gt;4</title>
<path fill="none" stroke="black" d="M110.99,-82.36C109.78,-79.11 108.5,-75.65 107.23,-72.2"/>
<polygon fill="black" stroke="black" points="110.45,-70.84 103.7,-62.68 103.89,-73.27 110.45,-70.84"/>
</g>
<!-- 3&#45;&gt;4 -->
<g id="edge4" class="edge">
<title>3&#45;&gt;4</title>
<path fill="none" stroke="black" d="M78.06,-117.54C81.41,-104.78 85.99,-87.37 89.82,-72.79"/>
<polygon fill="black" stroke="black" points="93.29,-73.35 92.44,-62.79 86.52,-71.57 93.29,-73.35"/>
</g>
<!-- 2 -->
<g id="node4" class="node">
<title>2</title>
<ellipse fill="none" stroke="black" cx="27" cy="-98.75" rx="27" ry="18"/>
<text text-anchor="middle" x="27" y="-95.05" font-family="Times,serif" font-size="14.00">2</text>
</g>
<!-- 3&#45;&gt;2 -->
<g id="edge5" class="edge">
<title>3&#45;&gt;2</title>
<path fill="none" stroke="black" d="M55.84,-121.56C54.8,-120.73 53.74,-119.9 52.68,-119.06"/>
<polygon fill="black" stroke="black" points="54.57,-116.09 44.55,-112.63 50.23,-121.58 54.57,-116.09"/>
</g>
<!-- 2&#45;&gt;1 -->
<g id="edge3" class="edge">
<title>2&#45;&gt;1</title>
<path fill="none" stroke="black" d="M54.17,-99.16C62.41,-99.29 71.61,-99.42 80.39,-99.56"/>
<polygon fill="black" stroke="black" points="80.36,-103.06 90.41,-99.71 80.47,-96.06 80.36,-103.06"/>
</g>
<!-- 5 -->
<g id="node5" class="node">
<title>5</title>
<ellipse fill="none" stroke="black" cx="236.49" cy="-18" rx="27" ry="18"/>
<text text-anchor="middle" x="236.49" y="-14.3" font-family="Times,serif" font-size="14.00">5</text>
</g>
<!-- 0 -->
<g id="node6" class="node">
<title>0</title>
<ellipse fill="none" stroke="black" cx="168.75" cy="-45.49" rx="27" ry="18"/>
<text text-anchor="middle" x="168.75" y="-41.79" font-family="Times,serif" font-size="14.00">0</text>
</g>
<!-- 0&#45;&gt;1 -->
<g id="edge6" class="edge">
<title>0&#45;&gt;1</title>
<path fill="none" stroke="black" d="M154.22,-61C149.42,-66.12 143.99,-71.92 138.8,-77.46"/>
<polygon fill="black" stroke="black" points="136.24,-75.07 131.96,-84.76 141.35,-79.85 136.24,-75.07"/>
</g>
<!-- 0&#45;&gt;4 -->
<g id="edge7" class="edge">
<title>0&#45;&gt;4</title>
<path fill="none" stroke="black" d="M141.67,-45.29C139.26,-45.27 136.8,-45.25 134.33,-45.23"/>
<polygon fill="black" stroke="black" points="134.27,-41.73 124.24,-45.16 134.22,-48.73 134.27,-41.73"/>
</g>
<!-- 0&#45;&gt;5 -->
<g id="edge8" class="edge">
<title>0&#45;&gt;5</title>
<path fill="none" stroke="black" d="M192.06,-36.03C195.93,-34.46 200.01,-32.8 204.07,-31.16"/>
<polygon fill="black" stroke="black" points="205.41,-34.39 213.36,-27.39 202.78,-27.9 205.41,-34.39"/>
</g>
</g>
</svg>
