<?xml version="1.0" encoding="UTF-8" standalone="no"?>
<!DOCTYPE svg PUBLIC "-//W3C//DTD SVG 1.1//EN"
 "http://www.w3.org/Graphics/SVG/1.1/DTD/svg11.dtd">
<!-- Generated by graphviz version 2.43.0 (0)
 -->
<!-- Title: %3 Pages: 1 -->
<svg width="220pt" height="332pt"
 viewBox="0.00 0.00 220.00 332.00" xmlns="http://www.w3.org/2000/svg" xmlns:xlink="http://www.w3.org/1999/xlink">
<g id="graph0" class="graph" transform="scale(1 1) rotate(0) translate(4 328)">
<title>%3</title>
<polygon fill="white" stroke="transparent" points="-4,4 -4,-328 216,-328 216,4 -4,4"/>
<!-- 2 -->
<g id="node1" class="node">
<title>2</title>
<ellipse fill="none" stroke="black" cx="55" cy="-234" rx="27" ry="18"/>
<text text-anchor="middle" x="55" y="-230.3" font-family="Times,serif" font-size="14.00">2</text>
</g>
<!-- 3 -->
<g id="node2" class="node">
<title>3</title>
<ellipse fill="none" stroke="black" cx="27" cy="-90" rx="27" ry="18"/>
<text text-anchor="middle" x="27" y="-86.3" font-family="Times,serif" font-size="14.00">3</text>
</g>
<!-- 2&#45;&gt;3 -->
<g id="edge1" class="edge">
<title>2&#45;&gt;3</title>
<path fill="none" stroke="black" d="M51.62,-215.87C46.83,-191.56 38.01,-146.82 32.33,-118.01"/>
<polygon fill="black" stroke="black" points="35.76,-117.32 30.39,-108.19 28.89,-118.68 35.76,-117.32"/>
</g>
<!-- 4 -->
<g id="node3" class="node">
<title>4</title>
<ellipse fill="none" stroke="black" cx="84" cy="-162" rx="27" ry="18"/>
<text text-anchor="middle" x="84" y="-158.3" font-family="Times,serif" font-size="14.00">4</text>
</g>
<!-- 2&#45;&gt;4 -->
<g id="edge2" class="edge">
<title>2&#45;&gt;4</title>
<path fill="none" stroke="black" d="M61.87,-216.41C65.27,-208.22 69.44,-198.14 73.25,-188.95"/>
<polygon fill="black" stroke="black" points="76.58,-190.05 77.18,-179.47 70.12,-187.37 76.58,-190.05"/>
</g>
<!-- 5 -->
<g id="node8" class="node">
<title>5</title>
<ellipse fill="none" stroke="black" cx="41" cy="-18" rx="27" ry="18"/>
<text text-anchor="middle" x="41" y="-14.3" font-family="Times,serif" font-size="14.00">5</text>
</g>
<!-- 4&#45;&gt;5 -->
<g id="edge7" class="edge">
<title>4&#45;&gt;5</title>
<path fill="none" stroke="black" d="M80.85,-144.05C77.3,-125.97 70.96,-96.62 63,-72 60.09,-63.01 56.32,-53.4 52.72,-44.87"/>
<polygon fill="black" stroke="black" points="55.83,-43.23 48.64,-35.45 49.4,-46.02 55.83,-43.23"/>
</g>
<!-- 6 -->
<g id="node4" class="node">
<title>6</title>
<ellipse fill="none" stroke="black" cx="141" cy="-234" rx="27" ry="18"/>
<text text-anchor="middle" x="141" y="-230.3" font-family="Times,serif" font-size="14.00">6</text>
</g>
<!-- 7 -->
<g id="node5" class="node">
<title>7</title>
<ellipse fill="none" stroke="black" cx="156" cy="-162" rx="27" ry="18"/>
<text text-anchor="middle" x="156" y="-158.3" font-family="Times,serif" font-size="14.00">7</text>
</g>
<!-- 6&#45;&gt;7 -->
<g id="edge3" class="edge">
<title>6&#45;&gt;7</title>
<path fill="none" stroke="black" d="M144.63,-216.05C146.3,-208.26 148.32,-198.82 150.2,-190.08"/>
<polygon fill="black" stroke="black" points="153.63,-190.79 152.3,-180.28 146.78,-189.32 153.63,-190.79"/>
</g>
<!-- 8 -->
<g id="node6" class="node">
<title>8</title>
<ellipse fill="none" stroke="black" cx="149" cy="-90" rx="27" ry="18"/>
<text text-anchor="middle" x="149" y="-86.3" font-family="Times,serif" font-size="14.00">8</text>
</g>
<!-- 7&#45;&gt;8 -->
<g id="edge4" class="edge">
<title>7&#45;&gt;8</title>
<path fill="none" stroke="black" d="M154.27,-143.7C153.5,-135.98 152.57,-126.71 151.71,-118.11"/>
<polygon fill="black" stroke="black" points="155.19,-117.71 150.71,-108.1 148.22,-118.4 155.19,-117.71"/>
</g>
<!-- 9 -->
<g id="node9" class="node">
<title>9</title>
<ellipse fill="none" stroke="black" cx="113" cy="-18" rx="27" ry="18"/>
<text text-anchor="middle" x="113" y="-14.3" font-family="Times,serif" font-size="14.00">9</text>
</g>
<!-- 8&#45;&gt;9 -->
<g id="edge8" class="edge">
<title>8&#45;&gt;9</title>
<path fill="none" stroke="black" d="M140.65,-72.76C136.29,-64.28 130.85,-53.71 125.96,-44.2"/>
<polygon fill="black" stroke="black" points="128.99,-42.44 121.3,-35.15 122.77,-45.64 128.99,-42.44"/>
</g>
<!-- 10 -->
<g id="node10" class="node">
<title>10</title>
<ellipse fill="none" stroke="black" cx="185" cy="-18" rx="27" ry="18"/>
<text text-anchor="middle" x="185" y="-14.3" font-family="Times,serif" font-size="14.00">10</text>
</g>
<!-- 8&#45;&gt;10 -->
<g id="edge9" class="edge">
<title>8&#45;&gt;10</title>
<path fill="none" stroke="black" d="M157.35,-72.76C161.71,-64.28 167.15,-53.71 172.04,-44.2"/>
<polygon fill="black" stroke="black" points="175.23,-45.64 176.7,-35.15 169.01,-42.44 175.23,-45.64"/>
</g>
<!-- 1 -->
<g id="node7" class="node">
<title>1</title>
<ellipse fill="none" stroke="black" cx="91" cy="-306" rx="27" ry="18"/>
<text text-anchor="middle" x="91" y="-302.3" font-family="Times,serif" font-size="14.00">1</text>
</g>
<!-- 1&#45;&gt;2 -->
<g id="edge5" class="edge">
<title>1&#45;&gt;2</title>
<path fill="none" stroke="black" d="M82.65,-288.76C78.29,-280.28 72.85,-269.71 67.96,-260.2"/>
<polygon fill="black" stroke="black" points="70.99,-258.44 63.3,-251.15 64.77,-261.64 70.99,-258.44"/>
</g>
<!-- 1&#45;&gt;6 -->
<g id="edge6" class="edge">
<title>1&#45;&gt;6</title>
<path fill="none" stroke="black" d="M102.1,-289.46C108.51,-280.49 116.7,-269.02 123.92,-258.92"/>
<polygon fill="black" stroke="black" points="126.97,-260.66 129.93,-250.49 121.27,-256.59 126.97,-260.66"/>
</g>
</g>
</svg>
